<svg width="824" height="197" viewBox="0 0 824 197" fill="none" xmlns="http://www.w3.org/2000/svg">
<mask id="mask0_24_1172" style="mask-type:luminance" maskUnits="userSpaceOnUse" x="0" y="0" width="390" height="197">
<path d="M389.69 0H0.632629V197H389.69V0Z" fill="white"/>
</mask>
<g mask="url(#mask0_24_1172)">
<path d="M124.34 103.6V104.898C124.34 105.333 124.313 105.764 124.261 106.197H94.6369C94.6887 107.811 95.0422 109.329 95.6975 110.751C96.3524 112.176 97.2306 113.412 98.3301 114.46C99.4303 115.508 100.7 116.327 102.141 116.918C103.581 117.509 105.114 117.804 106.738 117.804C109.252 117.804 111.426 117.237 113.26 116.1C115.093 114.963 116.533 113.584 117.582 111.96L122.769 116.262C120.777 118.989 118.433 120.996 115.736 122.285C113.037 123.573 110.038 124.216 106.738 124.216C103.909 124.216 101.289 123.73 98.8798 122.755C96.4701 121.781 94.4011 120.416 92.6726 118.657C90.9437 116.899 89.581 114.774 88.5866 112.285C87.5911 109.797 87.0936 107.038 87.0936 104.006C87.0936 101.031 87.5789 98.2837 88.5497 95.7674C89.5208 93.2507 90.8728 91.0997 92.6055 89.3146C94.3378 87.5287 96.3852 86.1356 98.7484 85.1341C101.11 84.1337 103.655 83.6323 106.386 83.6323C109.116 83.6323 111.596 84.0928 113.827 85.0121C116.058 85.9329 117.948 87.2584 119.497 88.9895C121.046 90.7215 122.241 92.8179 123.08 95.2802C123.92 97.743 124.34 100.515 124.34 103.6ZM116.796 100.515C116.743 99.0003 116.494 97.5804 116.05 96.2542C115.604 94.928 114.95 93.7781 114.085 92.8037C113.22 91.8301 112.147 91.0584 110.863 90.4913C109.578 89.923 108.074 89.6381 106.345 89.6381C104.773 89.6381 103.294 89.923 101.905 90.4913C100.517 91.0587 99.3126 91.8305 98.2904 92.8037C97.2687 93.7781 96.4309 94.928 95.7764 96.2542C95.1211 97.5804 94.7413 99.0003 94.6365 100.515H116.796Z" fill="#005CB9"/>
</g>
<mask id="mask1_24_1172" style="mask-type:luminance" maskUnits="userSpaceOnUse" x="0" y="0" width="390" height="197">
<path d="M389.69 0H0.632629V197H389.69V0Z" fill="white"/>
</mask>
<g mask="url(#mask1_24_1172)">
<path d="M198.922 84.6877L190.44 114.323L181.32 84.6877H173.542L164.589 114.323L156.097 84.6877H148.082L160.498 123.162H168.198L177.313 94.2652H177.47L186.664 123.162H194.365L206.701 84.6877H198.922Z" fill="#005CB9"/>
</g>
<mask id="mask2_24_1172" style="mask-type:luminance" maskUnits="userSpaceOnUse" x="0" y="0" width="390" height="197">
<path d="M389.69 0H0.632629V197H389.69V0Z" fill="white"/>
</mask>
<g mask="url(#mask2_24_1172)">
<path d="M246.144 103.844C246.144 106.821 245.632 109.553 244.611 112.042C243.589 114.53 242.175 116.683 240.368 118.495C238.56 120.308 236.425 121.715 233.963 122.715C231.5 123.716 228.856 124.217 226.027 124.217C223.198 124.217 220.552 123.716 218.091 122.715C215.627 121.715 213.506 120.308 211.726 118.495C209.943 116.683 208.543 114.531 207.522 112.042C206.5 109.553 205.989 106.821 205.989 103.844C205.989 100.867 206.501 98.1495 207.522 95.6863C208.543 93.2244 209.943 91.1005 211.726 89.3142C213.506 87.5283 215.627 86.136 218.091 85.1337C220.552 84.1325 223.198 83.6323 226.027 83.6323C228.856 83.6323 231.5 84.1325 233.963 85.1337C236.425 86.136 238.56 87.5279 240.368 89.3142C242.175 91.1005 243.589 93.2244 244.611 95.6863C245.632 98.1491 246.144 100.867 246.144 103.844ZM238.442 103.884C238.442 102.051 238.166 100.296 237.615 98.6229C237.062 96.9524 236.261 95.4821 235.211 94.2133C234.16 92.9454 232.858 91.9344 231.309 91.1784C229.758 90.4228 227.983 90.0454 225.988 90.0454C223.99 90.0454 222.216 90.4228 220.666 91.1784C219.115 91.9344 217.815 92.9454 216.765 94.2133C215.713 95.4821 214.911 96.9524 214.36 98.6229C213.807 100.296 213.532 102.051 213.532 103.884C213.532 105.72 213.807 107.474 214.36 109.145C214.911 110.817 215.713 112.302 216.765 113.597C217.815 114.891 219.115 115.916 220.666 116.671C222.215 117.428 223.99 117.805 225.988 117.805C227.983 117.805 229.758 117.428 231.309 116.671C232.858 115.916 234.16 114.892 235.211 113.597C236.261 112.302 237.062 110.817 237.615 109.145C238.166 107.474 238.442 105.72 238.442 103.884Z" fill="#005CB9"/>
</g>
<mask id="mask3_24_1172" style="mask-type:luminance" maskUnits="userSpaceOnUse" x="0" y="0" width="390" height="197">
<path d="M389.69 0H0.632629V197H389.69V0Z" fill="white"/>
</mask>
<g mask="url(#mask3_24_1172)">
<path d="M281.935 72.7826H274.547V123.162H281.935V72.7826Z" fill="#005CB9"/>
</g>
<mask id="mask4_24_1172" style="mask-type:luminance" maskUnits="userSpaceOnUse" x="0" y="0" width="390" height="197">
<path d="M389.69 0H0.632629V197H389.69V0Z" fill="white"/>
</mask>
<g mask="url(#mask4_24_1172)">
<path d="M145.13 90.5137V84.6878H135.836V72.7833H128.528V111.798C128.528 115.803 129.458 118.807 131.317 120.808C133.177 122.81 135.862 123.812 139.373 123.812C140.525 123.812 141.637 123.716 142.712 123.527C143.583 123.372 144.378 123.163 145.13 122.919V116.62C144.574 116.856 143.973 117.048 143.3 117.176C142.515 117.325 141.781 117.398 141.101 117.398C139.267 117.398 137.931 116.9 137.093 115.902C136.255 114.904 135.836 113.245 135.836 110.925V90.5133L145.13 90.5137Z" fill="#005CB9"/>
</g>
<mask id="mask5_24_1172" style="mask-type:luminance" maskUnits="userSpaceOnUse" x="0" y="0" width="390" height="197">
<path d="M389.69 0H0.632629V197H389.69V0Z" fill="white"/>
</mask>
<g mask="url(#mask5_24_1172)">
<path d="M268.288 83.6323C265.774 83.6323 263.507 84.3226 261.492 85.7019C259.474 87.0817 257.706 88.9085 256.659 91.1811V84.6909H249.665V123.161H257.052V102.951C257.052 101.328 257.26 99.7724 257.68 98.2837C258.099 96.7965 258.742 95.4837 259.605 94.3471C260.47 93.2106 261.556 92.3055 262.867 91.6278C264.175 90.9521 265.721 90.6137 267.502 90.6137C268.699 90.6137 269.818 90.7479 270.862 91.0147V83.8814C270.138 83.7185 269.286 83.6323 268.288 83.6323Z" fill="#005CB9"/>
</g>
<mask id="mask6_24_1172" style="mask-type:luminance" maskUnits="userSpaceOnUse" x="0" y="0" width="390" height="197">
<path d="M389.69 0H0.632629V197H389.69V0Z" fill="white"/>
</mask>
<g mask="url(#mask6_24_1172)">
<path d="M82.3988 93.2102C81.8483 91.3165 80.9968 89.6672 79.8452 88.2591C78.6923 86.8522 77.2519 85.7299 75.5234 84.8909C73.7945 84.0526 71.7247 83.6323 69.3158 83.6323C67.953 83.6323 66.644 83.8228 65.3867 84.2006C64.1299 84.5792 62.9767 85.1077 61.9294 85.7834C60.8813 86.4607 59.9517 87.2442 59.1399 88.1375C58.3276 89.0297 57.4503 89.9915 56.979 91.0182L56.9767 91.0198V84.6909H49.982V123.161H49.9847H57.3687H57.371V102.707C57.371 98.8653 58.3002 95.7957 60.1609 93.4936C62.0193 91.1953 64.4168 90.0446 67.3507 90.0446C69.0795 90.0446 70.4941 90.3693 71.5944 91.0182C72.6946 91.6676 73.5587 92.5345 74.1873 93.6163C74.8159 94.6994 75.2483 95.9433 75.4834 97.3506C75.72 98.7575 75.8377 100.245 75.8377 101.814V123.161H83.2244V99.2978C83.2244 97.1342 82.9486 95.1051 82.3988 93.2102Z" fill="#005CB9"/>
</g>
<mask id="mask7_24_1172" style="mask-type:luminance" maskUnits="userSpaceOnUse" x="0" y="0" width="390" height="197">
<path d="M389.69 0H0.632629V197H389.69V0Z" fill="white"/>
</mask>
<g mask="url(#mask7_24_1172)">
<path d="M297.655 84.691H306.786L291.063 104.045L306.596 123.165H297.466L281.933 104.045L297.655 84.691Z" fill="#005CB9"/>
</g>
<mask id="mask8_24_1172" style="mask-type:luminance" maskUnits="userSpaceOnUse" x="13" y="6" width="811" height="158">
<path d="M824 6H13V163.801H824V6Z" fill="white"/>
</mask>
<g mask="url(#mask8_24_1172)">
<path d="M324.617 84.691H315.488L331.209 104.045L315.678 123.165H324.808L340.339 104.045L324.617 84.691Z" fill="#E74360"/>
<path d="M379.132 123V84.12H410.722C412.054 84.12 413.26 84.444 414.34 85.092C415.456 85.74 416.338 86.622 416.986 87.738C417.67 88.854 418.012 90.078 418.012 91.41V115.71C418.012 117.042 417.67 118.266 416.986 119.382C416.338 120.498 415.456 121.38 414.34 122.028C413.26 122.676 412.054 123 410.722 123H379.132ZM386.584 116.466H410.506C410.758 116.466 410.974 116.376 411.154 116.196C411.37 116.016 411.478 115.782 411.478 115.494V91.626C411.478 91.338 411.37 91.104 411.154 90.924C410.974 90.744 410.758 90.654 410.506 90.654H386.584C386.296 90.654 386.044 90.744 385.828 90.924C385.648 91.104 385.558 91.338 385.558 91.626V115.494C385.558 115.782 385.648 116.016 385.828 116.196C386.044 116.376 386.296 116.466 386.584 116.466ZM431.025 123C429.693 123 428.487 122.676 427.407 122.028C426.327 121.344 425.445 120.462 424.761 119.382C424.113 118.302 423.789 117.096 423.789 115.764V98.916C423.789 97.584 424.113 96.378 424.761 95.298C425.445 94.218 426.327 93.354 427.407 92.706C428.487 92.022 429.693 91.68 431.025 91.68H448.359C449.727 91.68 450.951 92.022 452.031 92.706C453.111 93.354 453.975 94.218 454.623 95.298C455.271 96.378 455.595 97.584 455.595 98.916V110.58H430.215V115.548C430.215 115.836 430.305 116.088 430.485 116.304C430.701 116.484 430.953 116.574 431.241 116.574H455.595V123H431.025ZM430.215 104.694H449.169V99.132C449.169 98.844 449.061 98.61 448.845 98.43C448.665 98.214 448.431 98.106 448.143 98.106H431.241C430.953 98.106 430.701 98.214 430.485 98.43C430.305 98.61 430.215 98.844 430.215 99.132V104.694ZM474.674 123L457.448 91.68H464.9L477.806 115.386L490.712 91.68H498.164L480.83 123H474.674ZM507.332 123C506 123 504.794 122.676 503.714 122.028C502.634 121.344 501.752 120.462 501.068 119.382C500.42 118.302 500.096 117.096 500.096 115.764V98.916C500.096 97.584 500.42 96.378 501.068 95.298C501.752 94.218 502.634 93.354 503.714 92.706C504.794 92.022 506 91.68 507.332 91.68H524.666C526.034 91.68 527.258 92.022 528.338 92.706C529.418 93.354 530.282 94.218 530.93 95.298C531.578 96.378 531.902 97.584 531.902 98.916V110.58H506.522V115.548C506.522 115.836 506.612 116.088 506.792 116.304C507.008 116.484 507.26 116.574 507.548 116.574H531.902V123H507.332ZM506.522 104.694H525.476V99.132C525.476 98.844 525.368 98.61 525.152 98.43C524.972 98.214 524.738 98.106 524.45 98.106H507.548C507.26 98.106 507.008 98.214 506.792 98.43C506.612 98.61 506.522 98.844 506.522 99.132V104.694ZM543.562 123C542.23 123 541.024 122.676 539.944 122.028C538.864 121.344 537.982 120.462 537.298 119.382C536.65 118.302 536.326 117.096 536.326 115.764V81.366H542.806V115.548C542.806 115.836 542.896 116.088 543.076 116.304C543.292 116.484 543.526 116.574 543.778 116.574H549.61V123H543.562ZM560.857 123C559.525 123 558.319 122.676 557.239 122.028C556.159 121.344 555.277 120.462 554.593 119.382C553.945 118.302 553.621 117.096 553.621 115.764V98.916C553.621 97.584 553.945 96.378 554.593 95.298C555.277 94.218 556.159 93.354 557.239 92.706C558.319 92.022 559.525 91.68 560.857 91.68H578.191C579.559 91.68 580.783 92.022 581.863 92.706C582.943 93.354 583.807 94.218 584.455 95.298C585.103 96.378 585.427 97.584 585.427 98.916V115.764C585.427 117.096 585.103 118.302 584.455 119.382C583.807 120.462 582.943 121.344 581.863 122.028C580.783 122.676 579.559 123 578.191 123H560.857ZM561.073 116.574H577.975C578.263 116.574 578.497 116.484 578.677 116.304C578.893 116.088 579.001 115.836 579.001 115.548V99.132C579.001 98.844 578.893 98.61 578.677 98.43C578.497 98.214 578.263 98.106 577.975 98.106H561.073C560.785 98.106 560.533 98.214 560.317 98.43C560.137 98.61 560.047 98.844 560.047 99.132V115.548C560.047 115.836 560.137 116.088 560.317 116.304C560.533 116.484 560.785 116.574 561.073 116.574ZM591.172 135.42V91.68H615.796C617.092 91.68 618.28 92.022 619.36 92.706C620.476 93.354 621.358 94.218 622.006 95.298C622.654 96.378 622.978 97.584 622.978 98.916V115.764C622.978 117.096 622.654 118.302 622.006 119.382C621.358 120.462 620.476 121.344 619.36 122.028C618.28 122.676 617.092 123 615.796 123H597.598V135.42H591.172ZM598.624 116.574H615.58C615.832 116.574 616.048 116.484 616.228 116.304C616.444 116.088 616.552 115.836 616.552 115.548V99.132C616.552 98.844 616.444 98.61 616.228 98.43C616.048 98.214 615.832 98.106 615.58 98.106H598.624C598.372 98.106 598.138 98.214 597.922 98.43C597.706 98.61 597.598 98.844 597.598 99.132V115.548C597.598 115.836 597.706 116.088 597.922 116.304C598.138 116.484 598.372 116.574 598.624 116.574ZM634.105 123C632.773 123 631.567 122.676 630.487 122.028C629.407 121.344 628.525 120.462 627.841 119.382C627.193 118.302 626.869 117.096 626.869 115.764V98.916C626.869 97.584 627.193 96.378 627.841 95.298C628.525 94.218 629.407 93.354 630.487 92.706C631.567 92.022 632.773 91.68 634.105 91.68H651.439C652.807 91.68 654.031 92.022 655.111 92.706C656.191 93.354 657.055 94.218 657.703 95.298C658.351 96.378 658.675 97.584 658.675 98.916V110.58H633.295V115.548C633.295 115.836 633.385 116.088 633.565 116.304C633.781 116.484 634.033 116.574 634.321 116.574H658.675V123H634.105ZM633.295 104.694H652.249V99.132C652.249 98.844 652.141 98.61 651.925 98.43C651.745 98.214 651.511 98.106 651.223 98.106H634.321C634.033 98.106 633.781 98.214 633.565 98.43C633.385 98.61 633.295 98.844 633.295 99.132V104.694ZM663.996 123V98.916C663.996 97.584 664.32 96.378 664.968 95.298C665.652 94.218 666.534 93.354 667.614 92.706C668.73 92.022 669.936 91.68 671.232 91.68H688.674V98.106H671.448C671.16 98.106 670.908 98.214 670.692 98.43C670.512 98.61 670.422 98.844 670.422 99.132V123H663.996ZM708.351 123V84.12H714.831V100.32H741.615V84.12H748.095V123H741.615V106.8H714.831V123H708.351ZM761.303 123C759.971 123 758.747 122.676 757.631 122.028C756.551 121.344 755.687 120.462 755.039 119.382C754.391 118.302 754.067 117.096 754.067 115.764V91.68H760.493V115.548C760.493 115.836 760.583 116.088 760.763 116.304C760.979 116.484 761.231 116.574 761.519 116.574H778.421C778.709 116.574 778.943 116.484 779.123 116.304C779.339 116.088 779.447 115.836 779.447 115.548V91.68H785.873V115.764C785.873 117.096 785.549 118.302 784.901 119.382C784.253 120.462 783.389 121.344 782.309 122.028C781.229 122.676 780.005 123 778.637 123H761.303ZM790.561 123V81.42H796.987V91.68H815.185C816.481 91.68 817.669 92.022 818.749 92.706C819.865 93.354 820.747 94.218 821.395 95.298C822.043 96.378 822.367 97.584 822.367 98.916V115.764C822.367 117.096 822.043 118.302 821.395 119.382C820.747 120.462 819.865 121.344 818.749 122.028C817.669 122.676 816.481 123 815.185 123H790.561ZM798.013 116.574H814.969C815.221 116.574 815.437 116.484 815.617 116.304C815.833 116.088 815.941 115.836 815.941 115.548V99.132C815.941 98.844 815.833 98.61 815.617 98.43C815.437 98.214 815.221 98.106 814.969 98.106H798.013C797.761 98.106 797.527 98.214 797.311 98.43C797.095 98.61 796.987 98.844 796.987 99.132V115.548C796.987 115.836 797.095 116.088 797.311 116.304C797.527 116.484 797.761 116.574 798.013 116.574Z" fill="#E74360"/>
</g>
</svg>
